<svg width="512" height="512" viewBox="0 0 512 512" fill="none" xmlns="http://www.w3.org/2000/svg">
<path d="M434.064 94.5919C400.687 79.3307 365.239 68.208 328.239 62C323.581 70.0187 318.406 80.8826 314.784 89.4186C275.43 83.7279 236.359 83.7279 197.548 89.4186C193.925 80.8826 188.492 70.0187 184.093 62C146.835 68.208 111.387 79.3307 78.2422 94.5919C11.2283 193.402 -6.8837 289.884 2.17226 385.073C46.6757 417.406 89.6273 437.066 131.828 450C142.178 436.031 151.493 421.028 159.514 405.25C144.248 399.559 129.758 392.575 115.786 384.297C119.409 381.712 123.031 378.867 126.395 376.021C210.744 414.563 302.106 414.563 385.42 376.021C389.043 378.867 392.407 381.712 396.029 384.297C382.056 392.575 367.568 399.559 352.301 405.25C360.323 421.028 369.638 436.031 379.986 450C422.162 437.066 465.372 417.406 509.642 385.073C520.767 274.883 492.022 179.177 434.064 94.5919ZM171.157 326.357C145.8 326.357 125.1 303.336 125.1 275.141C125.1 246.947 145.282 223.925 171.157 223.925C196.772 223.925 217.729 246.947 217.212 275.141C217.212 303.336 196.772 326.357 171.157 326.357ZM341.177 326.357C315.819 326.357 295.093 303.336 295.093 275.141C295.093 246.947 315.301 223.925 341.177 223.925C366.791 223.925 387.749 246.947 387.231 275.141C387.231 303.336 367.05 326.357 341.177 326.357Z" fill="#404EED"/>
</svg>
