<svg width="512" height="512" viewBox="0 0 512 512" fill="none" xmlns="http://www.w3.org/2000/svg">
<path fill-rule="evenodd" clip-rule="evenodd" d="M0 256C0 382.72 92.16 487.68 213.76 509.44L215.273 508.202C215.195 508.188 215.117 508.174 215.039 508.16V327.68H151.039V256H215.039V199.68C215.039 135.68 255.999 99.8398 314.879 99.8398C332.799 99.8398 353.279 102.4 371.199 104.96V170.24H337.919C307.199 170.24 299.519 185.6 299.519 206.08V256H367.359L355.839 327.68H299.519V508.16C298.74 508.302 297.96 508.439 297.181 508.573L298.24 509.44C419.84 487.68 512 382.72 512 256C512 115.2 396.8 0 256 0C115.2 0 0 115.2 0 256Z" fill="black"/>
</svg>
