<svg width="512" height="512" viewBox="0 0 512 512" fill="none" xmlns="http://www.w3.org/2000/svg">
<g clip-path="url(#clip0_468_2)">
<path d="M53.4004 1.49993C30.2004 6.59993 11.4004 23.3999 3.40039 46.0999L0.500391 54.4999L0.200391 153L0.000390626 251.5L48.6004 270.3L97.2004 289L103.6 283C123.9 264.1 143.4 255.6 173 252.7C175 252.5 181 245.1 204.5 213.8L233.6 175.2L234.8 163.3C236.8 143.9 242.4 126.1 251.4 111.1C269.9 80.0999 299.4 58.9999 335 51.2999C346.8 48.7999 372.2 48.7999 384 51.2999C443.5 64.0999 485 114.7 485 174.6C485 226.1 453.6 272 405.1 291.5C392.3 296.6 379.9 299 363.4 299.7L349.3 300.3L315.9 325.4L282.5 350.5L281.8 361C279.9 390.5 270 412.9 249.9 432.8C219.1 463.4 170 471.1 130.5 451.5C119 445.8 110.2 439.1 100.4 428.7C84.5004 411.8 75.5004 391.8 72.9004 367.7C72.3004 362.1 71.5004 357.2 71.2004 356.9C70.8004 356.6 59.0004 351.9 45.0004 346.5C31.0004 341.1 15.1004 335 9.70039 332.9L-0.0996094 329.1L0.200391 393.3L0.500391 457.5L3.40039 465.9C11.6004 489.2 31.6004 506.6 55.4004 510.9C63.8004 512.4 448.2 512.4 456.6 510.9C480.7 506.5 500.9 488.8 508.6 465.3L511.5 456.5V256C511.5 64.3999 511.4 55.1999 509.7 49.5999C502.5 26.2999 486.7 10.3999 463 2.39993C457.7 0.599933 449.7 0.499933 258.5 0.299933C95.9004 0.199933 58.4004 0.399933 53.4004 1.49993Z" fill="black"/>
<path d="M344.601 96.6C315.701 103.1 293.501 124.3 285.801 152.9C283.001 163.4 283.001 180.6 285.801 191.1C295.401 227 328.001 250.8 364.501 248.7C396.401 246.8 422.801 226.6 433.701 195.5C436.201 188.1 436.401 186.4 436.401 172C436.401 157.6 436.201 155.9 433.701 148.5C424.901 123.5 406.701 105.9 381.501 98C372.101 95.1 354.301 94.4 344.601 96.6ZM379.401 121.4C390.401 125.6 399.101 132.8 406.101 143.4C417.201 160.2 417.101 184 406.101 200.6C400.701 208.6 399.301 210.1 391.801 215.8C383.201 222.2 375.101 225.1 363.001 225.7C351.901 226.3 343.801 224.6 334.701 219.8C327.601 216 317.201 205.8 313.101 198.6C309.301 192 306.001 179.6 306.001 172C306.001 164.4 309.301 152 313.101 145.4C319.901 133.4 333.901 122.8 347.301 119.4C355.801 117.2 371.101 118.2 379.401 121.4Z" fill="black"/>
<path d="M162.4 299.8C156.4 301.6 144.6 306.9 145.2 307.5C145.4 307.7 156.3 311.9 169.5 317C198 327.9 201.8 329.8 207.1 335.3C227.4 356.1 216.2 390.8 187.5 396.1C183.7 396.8 180.2 396.8 176 396C171.5 395.2 140.6 383.9 119.3 375.3C117.4 374.5 121.4 385.2 125.6 392.2C140.4 416.4 171.1 427.7 198 418.6C218 411.8 233.2 395.5 238.5 375.1C240.5 367.2 240.5 352.4 238.5 344.5C236.3 335.9 230.6 325.1 224.9 318.7C218.5 311.5 206.7 303.6 198.2 300.9C188.7 297.9 170.9 297.3 162.4 299.8Z" fill="black"/>
</g>
<defs>
<clipPath id="clip0_468_2">
<rect width="512" height="512" fill="white"/>
</clipPath>
</defs>
</svg>
