<svg width="512" height="512" viewBox="0 0 512 512" fill="none" xmlns="http://www.w3.org/2000/svg">
<g clip-path="url(#clip0_1633_128)">
<path d="M256.107 512.213C397.55 512.213 512.213 397.55 512.213 256.107C512.213 114.663 397.55 0 256.107 0C114.663 0 0 114.663 0 256.107C0 397.55 114.663 512.213 256.107 512.213Z" fill="url(#paint0_linear_1633_128)"/>
<path fill-rule="evenodd" clip-rule="evenodd" d="M115.792 253.333C190.427 220.92 240.113 199.382 265.063 188.933C336.073 159.292 351.001 154.174 360.597 153.961C362.729 153.961 367.42 154.387 370.619 156.946C373.178 159.079 373.818 161.851 374.244 163.983C374.671 166.116 375.097 170.594 374.671 174.006C370.832 214.522 354.199 312.828 345.669 358.036C342.044 377.228 335.007 383.625 328.183 384.265C313.256 385.544 301.954 374.456 287.667 365.073C265.063 350.359 252.482 341.19 230.517 326.689C205.141 310.056 221.561 300.886 236.062 285.959C239.9 282.121 305.366 222.412 306.646 217.081C306.859 216.442 306.859 213.883 305.366 212.603C303.873 211.324 301.741 211.75 300.035 212.177C297.689 212.603 261.864 236.487 192.133 283.614C181.898 290.651 172.728 294.063 164.412 293.849C155.242 293.636 137.756 288.731 124.535 284.467C108.542 279.349 95.7469 276.577 96.8131 267.62C97.4528 262.929 103.85 258.238 115.792 253.333Z" fill="white"/>
</g>
<defs>
<linearGradient id="paint0_linear_1633_128" x1="255.893" y1="0" x2="255.893" y2="508.162" gradientUnits="userSpaceOnUse">
<stop stop-color="#2AABEE"/>
<stop offset="1" stop-color="#229ED9"/>
</linearGradient>
<clipPath id="clip0_1633_128">
<rect width="512" height="512" fill="white"/>
</clipPath>
</defs>
</svg>
