<svg width="512" height="512" viewBox="0 0 512 512" fill="none" xmlns="http://www.w3.org/2000/svg">
<g clip-path="url(#clip0_448_88)">
<mask id="mask0_448_88" style="mask-type:luminance" maskUnits="userSpaceOnUse" x="0" y="0" width="512" height="512">
<path d="M512 0H0V512H512V0Z" fill="white"/>
</mask>
<g mask="url(#mask0_448_88)">
<path fill-rule="evenodd" clip-rule="evenodd" d="M512.213 256.107C512.213 397.55 397.55 512.213 256.107 512.213C114.663 512.213 0 397.55 0 256.107C0 114.663 114.663 0 256.107 0C397.55 0 512.213 114.663 512.213 256.107ZM265.062 188.933C240.112 199.382 190.426 220.92 115.791 253.333C103.849 258.238 97.4518 262.929 96.8121 267.62C95.8678 275.553 105.797 278.634 119.19 282.791C120.919 283.327 122.706 283.882 124.534 284.467C137.755 288.731 155.241 293.636 164.411 293.849C172.727 294.063 181.897 290.651 192.132 283.614C261.863 236.487 297.688 212.603 300.034 212.177C301.74 211.75 303.872 211.324 305.365 212.603C306.858 213.883 306.858 216.442 306.645 217.081C305.627 221.32 264.027 259.94 245.097 277.514C240.22 282.042 236.847 285.173 236.061 285.959C234.061 288.018 232.025 289.967 230.067 291.841C217.826 303.557 208.64 312.35 230.516 326.689C240.462 333.255 248.485 338.729 256.384 344.118C265.93 350.631 275.298 357.022 287.666 365.073C290.579 366.986 293.369 368.971 296.09 370.907C306.713 378.464 316.299 385.283 328.182 384.265C335.006 383.625 342.043 377.228 345.668 358.036C354.198 312.828 370.831 214.522 374.67 174.006C375.096 170.594 374.67 166.116 374.243 163.983C373.817 161.851 373.177 159.079 370.618 156.946C367.419 154.387 362.728 153.961 360.596 153.961C351 154.174 336.072 159.292 265.062 188.933Z" fill="black"/>
</g>
</g>
<defs>
<clipPath id="clip0_448_88">
<rect width="512" height="512" fill="white"/>
</clipPath>
</defs>
</svg>
