<svg width="512" height="512" viewBox="0 0 512 512" fill="none" xmlns="http://www.w3.org/2000/svg">
<g clip-path="url(#clip0_469_11)">
<path d="M207.5 0.60009C203.7 0.80009 190.6 1.40009 178.5 2.00009C136.8 4.00009 91.6996 8.10009 79.0996 11.1001C58.6996 15.8001 38.2996 29.6001 25.3996 47.5001C19.8996 55.1001 13.2996 69.6001 11.0996 79.1001C8.29961 91.2001 4.79961 128.7 1.79961 178.5C0.199609 206.1 0.199609 305.9 1.79961 333.5C4.79961 383.2 8.29961 420.8 11.0996 432.9C15.7996 453.3 29.5996 473.7 47.4996 486.6C55.0996 492.1 69.5996 498.7 79.0996 500.9C90.9996 503.7 130.2 507.4 178 510.2C206.4 511.9 304.6 511.9 333 510.2C384.6 507.2 420.5 503.8 432.9 500.9C442.4 498.7 456.9 492.1 464.5 486.6C482.4 473.7 496.2 453.3 500.9 432.9C503.7 420.8 507.3 382.9 510.2 333.5C511.8 305.7 511.8 206 510.2 178.5C507.2 128.7 503.7 91.2001 500.9 79.1001C493.3 46.4001 465.6 18.7001 432.9 11.1001C421.2 8.30009 390.3 5.30009 344 2.40009C321.4 1.00009 225.4 -0.29991 207.5 0.60009ZM320 112.8C320 131.3 320.9 136.2 326.2 146.2C329.9 153.1 338 161.3 345.9 166.1C355 171.6 362.2 173 381 173H397V198V223H381.1C372.3 223 361.6 222.5 357.3 221.9C348.3 220.7 334.7 216.4 326.1 212C322.8 210.4 319.8 209 319.6 209C319.3 209 318.9 236.6 318.8 270.2C318.5 329.7 318.4 331.7 316.3 339.3C311.1 357.8 302.6 372.4 289.5 385.6C259.8 415.6 216.2 424.1 177 407.5C161.5 401 144.4 387.3 134.5 373.5C109.7 338.9 108.9 292.9 132.5 257.5C146.4 236.5 167.4 221.7 192.8 214.8C199 213.1 204.5 212.6 221.3 212.3L242 211.8V236.9V262H225.8C216.8 262 207.5 262.5 205 263.1C186.8 267.3 170.9 283.4 166.5 302.2C158.9 334.4 183.8 366 216.7 366C242.2 366 263.3 349.1 268.5 324.5C269.7 318.6 270 300.4 270 206.7V96.0001H295H320V112.8Z" fill="black"/>
</g>
<defs>
<clipPath id="clip0_469_11">
<rect width="512" height="512" fill="white"/>
</clipPath>
</defs>
</svg>
