<svg width="512" height="512" viewBox="0 0 512 512" fill="none" xmlns="http://www.w3.org/2000/svg">
<path d="M82.7 45.8L37 91.5V255.7V420L91.8 420.2L146.5 420.5L147 465.3L147.5 510L192.5 465L237.5 420H274.5H311.5L393.3 338.2L475 256.5V128.2V-7.59959e-06H301.7H128.5L82.7 45.8ZM439 136.7V237.5L402.3 274.2L365.5 311H329H292.5L260.3 343.2L228 375.5V343.2V311H187H146V173.5V36H292.5H439V136.7Z" fill="black"/>
<path d="M247 155.5V210H265H283V155.5V101H265H247V155.5Z" fill="black"/>
<path d="M348 155.5V210H366H384V155.5V101H366H348V155.5Z" fill="black"/>
</svg>
