<svg width="512" height="512" viewBox="0 0 512 512" fill="none" xmlns="http://www.w3.org/2000/svg">
<path d="M512 97.2545C493.163 105.61 472.916 111.255 451.671 113.795C473.357 100.795 490.015 80.21 497.856 55.6801C477.558 67.7197 455.078 76.4595 431.15 81.17C411.991 60.7539 384.691 48 354.478 48C296.468 48 249.433 95.0298 249.433 153.04C249.433 161.272 250.362 169.29 252.155 176.978C164.853 172.598 87.454 130.778 35.6446 67.2256C26.6027 82.7392 21.4212 100.782 21.4212 120.033C21.4212 156.478 39.9659 188.629 68.1516 207.465C50.933 206.92 34.7358 202.194 20.5739 194.327C20.5619 194.765 20.5619 195.205 20.5619 195.648C20.5619 246.541 56.7707 288.994 104.825 298.65C96.0104 301.051 86.7304 302.334 77.1508 302.334C70.3822 302.334 63.8031 301.673 57.3877 300.45C70.756 342.18 109.548 372.55 155.515 373.394C119.565 401.57 74.2734 418.363 25.0573 418.363C16.5786 418.363 8.21762 417.864 0 416.894C46.4871 446.7 101.701 464.09 161.022 464.09C354.233 464.09 459.892 304.031 459.892 165.217C459.892 160.663 459.79 156.135 459.587 151.626C480.108 136.819 497.916 118.321 511.998 97.2545H512Z" fill="#2AA9E0"/>
</svg>
